# xmcd
#
# Track frame offsets: 
#        150
#        6769
#        18507
#        34220
#        50355
#        66498
#        80923
#        100025
#        124866
#        142910
#        166181
#        182835
#        199734
#        216657
#        240731
#
# Disc length: 3432 seconds
#
# Revision: 7
# Processed by: cddbd v1.5.2PL0 Copyright (c) Steve Scherf et al.
# Submitted via: ExactAudioCopyFreeDBPlugin 1.0
#
DISCID=d70d660f
DTITLE=Big Boi - Sir Lucious Left Foot … The Son Of Chico Dusty
DYEAR=2010
DGENRE=Hip-Hop
TTITLE0=Feel Me [intro]
TTITLE1=Daddy Fat Sax
TTITLE2=Big Boi feat Sleepy Brown and Joi - Turns Me On
TTITLE3=Big Boi feat Vonnegutt - Follow Us
TTITLE4=Big Boi feat Cutty - Shutterbugg
TTITLE5=General Patton
TTITLE6=Big Boi feat T.I. and Khujo Goodie - Tangerine
TTITLE7=Big Boi feat Yelawolf - You Ain't No DJ
TTITLE8=Big Boi feat Jamie Foxx - Hustle Blood
TTITLE9=Big Boi feat Janelle Monáe - Be Still
TTITLE10=Big Boi feat George Clinton, Too Short and Sam Chris - Fo Yo So
TTITLE10=rrows
TTITLE11=Big Boi feat B.o.B. and Joi - Night Night
TTITLE12=Big Boi feat Gucci Mane - Shine Blockas
TTITLE13=Big Boi feat Sam Chris - The Train pt. 2 (Sir Lucious Left Fo
TTITLE13=ot Saves the Day)
TTITLE14=Back Up Plan
EXTD=YEAR: 2010
EXTT0=
EXTT1=
EXTT2=
EXTT3=
EXTT4=
EXTT5=
EXTT6=
EXTT7=
EXTT8=
EXTT9=
EXTT10=
EXTT11=
EXTT12=
EXTT13=
EXTT14=
PLAYORDER=
